<?xml version="1.0" encoding="UTF-8"?>
<svg id="Layer_1" data-name="Layer 1" xmlns="http://www.w3.org/2000/svg" xmlns:xlink="http://www.w3.org/1999/xlink" viewBox="0 0 845.84 577.01">
  <defs>
    <style>
      .cls-1 {
        fill: url(#linear-gradient);
      }

      .cls-2 {
        fill: #03045e;
      }
    </style>
    <linearGradient id="linear-gradient" x1="3.85" y1="331.66" x2="845.84" y2="331.66" gradientUnits="userSpaceOnUse">
      <stop offset="0" stop-color="#0077b6"/>
      <stop offset=".49" stop-color="#00b4d8"/>
      <stop offset="1" stop-color="#90e0ef"/>
    </linearGradient>
  </defs>
  <g>
    <path class="cls-2" d="M797.53,244.63c0,125.52-102.13,227.65-227.68,227.65h-166.02l-72.88-186.01-2.89-7.34-.47-1.2-.42-1.08-13.97-35.67.12-.02-41.13-105.91-131.62,337.23H58.56L235.77-.43h73.01l93.31,257.23.07.19.07.19,53.99,138.3,113.63-.07c83.15,0,150.8-67.65,150.8-150.78s-67.65-150.8-150.8-150.8h-122.19c-9.66,8.94-22.57,14.39-36.73,14.39-29.89,0-54.11-24.24-54.11-54.11S381.03,0,410.93,0C426.43,0,440.4,6.52,450.26,16.96h119.58c125.55,0,227.68,102.13,227.68,227.67Z"/>
    <path class="cls-1" d="M755.19,226.45c30.89,0,61.15.81,90.65,2.28-38.92-6.5-81.11-11.46-125.63-14.58.29,0,.58,0,.87-.01-70.72-7.96-151.75-10.33-237.67-5.73C214.26,222.83-.42,300,3.91,380.77c1.15,21.4,17.6,40.88,46.13,57.72-16.56-13.72-25.93-28.8-26.79-44.95-3.21-59.99,150.73-126.78,319.22-159.76-111.31,26.84-221.69,76.78-221.69,122.97,0,38.92,50.68,74.26,133.18,100.49-29.91-20.31-46.64-42.75-46.64-66.38,0-90.8,245.29-164.41,547.86-164.41Z"/>
  </g>
  <g>
    <path class="cls-2" d="M109.28,560.59l8.12,3.66-.67.86c-6.12,7.71-15.26,12.11-25.06,12.11-17.68,0-32.05-14.36-32.05-32.05s14.36-32.05,32.05-32.05c9.81,0,18.94,4.42,25.06,12.11l.69.88-1,.45c-6.95,3.15-6.93,3.15-7.31,2.94l-.24-.19c-4.42-4.8-10.68-7.55-17.2-7.55-12.92,0-23.41,10.51-23.41,23.41s10.49,23.41,23.41,23.41h.57c6.31-.15,12.35-2.89,16.63-7.55l.41-.45Z"/>
    <path class="cls-2" d="M173.43,560.59l8.12,3.66-.69.86c-6.11,7.71-15.24,12.11-25.06,12.11-17.67,0-32.03-14.36-32.03-32.05s14.36-32.05,32.03-32.05c9.82,0,18.96,4.42,25.08,12.11l.69.88-1,.45q-6.95,3.15-7.31,2.94l-.24-.19c-4.42-4.8-10.68-7.55-17.2-7.55-12.92,0-23.41,10.51-23.41,23.41s10.49,23.41,23.39,23.41h.58c6.31-.15,12.33-2.89,16.63-7.55l.41-.45Z"/>
    <polygon class="cls-2" points="196.93 521.77 196.93 540.86 227.55 540.86 227.55 549.5 196.93 549.5 196.93 568.59 236.85 568.59 236.85 577.23 188.29 577.23 188.29 513.13 236.85 513.13 236.85 521.77 196.93 521.77"/>
    <polygon class="cls-2" points="282.18 568.63 282.18 577.23 244.39 577.23 244.39 513.13 252.97 513.13 252.97 568.63 282.18 568.63"/>
    <polygon class="cls-2" points="298.16 521.77 298.16 540.86 328.78 540.86 328.78 549.5 298.16 549.5 298.16 568.59 338.08 568.59 338.08 577.23 289.52 577.23 289.52 513.13 338.08 513.13 338.08 521.77 298.16 521.77"/>
    <path class="cls-2" d="M375.29,551.79c8.77-2,15.24-9.98,15.24-19.08,0-10.8-8.77-19.58-19.56-19.58h-25.35v64.09h8.64v-24.96h11.15l15.65,24.96h10.2l-15.96-25.44ZM381.9,532.71c0,6.02-4.9,10.92-10.92,10.92h-16.72v-21.86h16.72c6.02,0,10.92,4.9,10.92,10.94Z"/>
    <path class="cls-2" d="M443.31,545.09l-12.47-31.96h-8.86l-25.01,64.09h9.25l.48-1.26c3.01-5.47,9.89-15.31,22.07-19.87,2.82-1.05,5.78-1.77,8.77-2.13.69,2,2.79,7.36,8.82,22.71l.21.55h9.27l-12.54-32.13ZM425.74,548.02c-3.63,1.38-7.07,3.18-10.27,5.4.98-2.39,2.58-6.5,5.35-13.61l5.59-14.29,7.98,20.19c-2.7.4-5.61,1.17-8.65,2.31Z"/>
    <polygon class="cls-2" points="505.75 513.13 505.75 521.77 483.18 521.77 483.18 577.23 474.54 577.23 474.54 521.77 451.96 521.77 451.96 513.13 505.75 513.13"/>
    <polygon class="cls-2" points="521.71 521.77 521.71 540.86 552.33 540.86 552.33 549.5 521.71 549.5 521.71 568.59 561.65 568.59 561.65 577.23 513.08 577.23 513.08 513.13 561.65 513.13 561.65 521.77 521.71 521.77"/>
    <path class="cls-2" d="M625.23,513.13h-22.95v64.09h22.95c17.68,0,32.06-14.38,32.06-32.05s-14.38-32.05-32.06-32.05ZM648.63,545.18c0,12.9-10.49,23.39-23.39,23.39h-14.29v-46.79h14.29c12.9,0,23.39,10.49,23.39,23.39Z"/>
    <polygon class="cls-2" points="766.87 513.13 766.87 521.77 744.29 521.77 744.29 577.23 735.65 577.23 735.65 521.77 713.08 521.77 713.08 513.13 766.87 513.13"/>
    <path class="cls-2" d="M46.32,545.09l-.03-.09-.07-.19-12.37-31.69h-8.86L0,577.23h9.26l.48-1.26c3.01-5.47,9.87-15.31,22.05-19.87,2.84-1.05,5.78-1.77,8.77-2.13.69,2,2.8,7.36,8.82,22.71l.21.55h9.27l-12.54-32.13ZM35.78,546.01c-.34.05-.71.14-1.05.21-1.91.43-3.9,1.03-5.97,1.81-3.63,1.38-7.07,3.18-10.25,5.4.96-2.39,2.58-6.5,5.35-13.61l5.57-14.29,8,20.19c-.55.09-1.1.17-1.65.29Z"/>
    <path class="cls-2" d="M807.62,545.09h.02l-12.49-31.96h-8.84l-25.01,64.09h9.25l.48-1.26c3.01-5.47,9.87-15.31,22.07-19.87,2.82-1.05,5.76-1.77,8.77-2.13.67,2,2.79,7.36,8.81,22.71l.22.55h9.25l-12.54-32.13ZM790.08,548.02c-3.65,1.38-7.09,3.18-10.27,5.4.98-2.39,2.58-6.5,5.35-13.61l5.59-14.29,7.98,20.19c-2.7.4-5.61,1.17-8.65,2.31Z"/>
    <path class="cls-2" d="M704.42,545.1l-12.47-31.96h-8.86l-25.01,64.09h9.25l.48-1.26c3.01-5.47,9.89-15.31,22.07-19.87,2.82-1.05,5.78-1.77,8.77-2.13.69,2,2.79,7.36,8.82,22.71l.21.55h9.27l-12.54-32.13ZM686.86,548.02c-3.63,1.38-7.07,3.18-10.27,5.4.98-2.39,2.58-6.5,5.35-13.61l5.59-14.29,7.98,20.19c-2.7.4-5.61,1.17-8.65,2.31Z"/>
  </g>
</svg>